<?xml version="1.0" encoding="utf-8"?>
<!-- Generator: Adobe Illustrator 15.0.0, SVG Export Plug-In . SVG Version: 6.00 Build 0)  -->
<!DOCTYPE svg PUBLIC "-//W3C//DTD SVG 1.1//EN" "http://www.w3.org/Graphics/SVG/1.1/DTD/svg11.dtd">
<svg version="1.1" id="Layer_1" xmlns="http://www.w3.org/2000/svg" xmlns:xlink="http://www.w3.org/1999/xlink" x="0px" y="0px"
	 width="30px" height="30px" viewBox="0 0 30 30" enable-background="new 0 0 30 30" xml:space="preserve">
<symbol  id="logo" viewBox="0 -94.154 87.804 94.154">
	<g id="Layer_1_2_">
		<path fill-rule="evenodd" clip-rule="evenodd" fill="#F2F2F2" d="M87.35-75.55c-1.067-3.934-3.85-7.233-8.35-9.9
			c-5.3-3.1-10.883-5.333-16.75-6.7c-5.9-1.4-12.583-2.067-20.05-2c-6.167,0-12.333,0.8-18.5,2.4c-6.867,1.8-12.367,4.283-16.5,7.45
			c-3.467,2.633-5.684,5.45-6.65,8.45c-0.333,0.934-0.517,1.833-0.55,2.7l0.05,1.05l0.35-1.05c0.267-0.9,0.667-1.783,1.2-2.65
			c1.633-2.867,4.017-5.217,7.15-7.05c4.367-2.566,8.683-4.517,12.95-5.85c6.233-2,13-2.966,20.3-2.9
			c8.2,0.033,15.167,0.75,20.9,2.15c5.267,1.3,10.45,3.434,15.55,6.4c3.5,2.033,6.083,4.733,7.75,8.1c0.8,1.7,1.267,3.184,1.4,4.45
			l0.2-1.4C87.833-73.133,87.683-74.35,87.35-75.55z M50.1-14.15c0.5-0.8,1.933-2.75,4.3-5.85c2.367-3.3,4.283-6.35,5.75-9.15
			c4.567-8.767,5.483-16.383,2.75-22.85c-1.467-3.533-3.9-6.317-7.3-8.35c-3.1-1.833-6.583-2.816-10.45-2.95
			c-3.8-0.133-7.283,0.6-10.45,2.2c-3.333,1.667-5.75,4.033-7.25,7.1c-1.833,3.8-2.717,7.517-2.65,11.15c0.1,3.1,0.9,6.283,2.4,9.55
			c1.066,2.333,2.767,5.167,5.1,8.5c3.267,4.7,5.1,7.35,5.5,7.95c2.633,4.2,4.534,8.267,5.7,12.2c0.6,1.967,0.917,3.517,0.95,4.65
			c0.433-1.533,0.966-3.267,1.6-5.2C47.417-9.1,48.767-12.083,50.1-14.15z M28.05-46.9c-0.167-0.434-0.267-0.883-0.3-1.35
			c-0.267-1.433-0.067-2.667,0.6-3.7c0.833-1.233,1.717-1.966,2.65-2.2c0.467-0.133,0.85-0.133,1.15,0c-0.2,0.033-0.45,0.2-0.75,0.5
			c-0.633,0.566-1.25,1.383-1.85,2.45c-0.566,1-0.966,2.1-1.2,3.3l-0.1,1.45C28.25-46.35,28.183-46.5,28.05-46.9z M36.6-73.1v-0.2
			c0.033-0.133,0.1-0.284,0.2-0.45c0.267-0.5,0.684-0.9,1.25-1.2c0.767-0.433,1.517-0.783,2.25-1.05c1.067-0.333,2.233-0.5,3.5-0.5
			c1.4,0.033,2.6,0.183,3.6,0.45c0.9,0.2,1.8,0.55,2.7,1.05c0.6,0.333,1.033,0.8,1.3,1.4c0.167,0.3,0.25,0.55,0.25,0.75l0.05-0.2
			c0-0.233-0.034-0.45-0.1-0.65c-0.2-0.667-0.667-1.233-1.4-1.7c-0.934-0.533-1.917-0.917-2.95-1.15c-1-0.267-2.133-0.383-3.4-0.35
			c-1.067,0-2.133,0.133-3.2,0.4c-1.2,0.3-2.167,0.733-2.9,1.3c-0.567,0.467-0.95,0.95-1.15,1.45c-0.033,0.167-0.05,0.317-0.05,0.45
			L36.6-73.1z M17.95-73.4c0.2-0.5,0.45-1.017,0.75-1.55c0.933-1.7,2.333-3.1,4.2-4.2c2.6-1.5,5.167-2.65,7.7-3.45
			c3.667-1.2,7.667-1.783,12-1.75c4.867,0.033,9,0.483,12.4,1.35c3.133,0.767,6.2,2.017,9.2,3.75c2.1,1.2,3.633,2.8,4.6,4.8
			c0.5,1,0.784,1.883,0.85,2.65l0.1-0.85c0.033-0.733-0.05-1.467-0.25-2.2c-0.633-2.3-2.283-4.233-4.95-5.8
			c-3.133-1.833-6.45-3.167-9.95-4c-3.467-0.833-7.417-1.233-11.85-1.2c-3.7,0.033-7.35,0.517-10.95,1.45
			c-4.1,1.066-7.383,2.533-9.85,4.4c-2.034,1.6-3.333,3.267-3.9,5c-0.167,0.6-0.267,1.133-0.3,1.6l0.05,0.65L17.95-73.4z"/>
		<path fill-rule="evenodd" clip-rule="evenodd" fill="#FFFFFF" d="M28.05-46.9c0.133,0.4,0.2,0.55,0.2,0.45l0.1-1.45
			c0.233-1.2,0.633-2.3,1.2-3.3c0.6-1.066,1.217-1.883,1.85-2.45c0.3-0.3,0.55-0.467,0.75-0.5c-0.3-0.133-0.683-0.133-1.15,0
			c-0.933,0.233-1.817,0.967-2.65,2.2c-0.667,1.034-0.867,2.267-0.6,3.7C27.783-47.783,27.883-47.333,28.05-46.9z"/>
	</g>
</symbol>
<use xlink:href="#logo"  width="87.804" height="94.154" y="-94.154" transform="matrix(0.3183 0 0 -0.3186 1.0498 0)" overflow="visible"/>
</svg>
