<?xml version="1.0" encoding="utf-8"?>
<!-- Generator: Adobe Illustrator 15.0.0, SVG Export Plug-In . SVG Version: 6.00 Build 0)  -->
<!DOCTYPE svg PUBLIC "-//W3C//DTD SVG 1.1//EN" "http://www.w3.org/Graphics/SVG/1.1/DTD/svg11.dtd">
<svg version="1.1" id="Layer_1" xmlns="http://www.w3.org/2000/svg" xmlns:xlink="http://www.w3.org/1999/xlink" x="0px" y="0px"
	 width="353px" height="90px" viewBox="0 0 353 90" enable-background="new 0 0 353 90" xml:space="preserve">
<symbol  id="HPMYouthsLogo90px" viewBox="0 -90.001 352.8 90.001">
	<g id="Layer_1_2_">
		<path fill-rule="evenodd" clip-rule="evenodd" fill="#FFFFFF" d="M93.1,0c0.4-1.433,0.917-3.083,1.55-4.95
			c1.267-3.7,2.533-6.55,3.8-8.55c0.533-0.767,1.9-2.617,4.1-5.55c2.267-3.167,4.1-6.1,5.5-8.8c4.4-8.367,5.3-15.65,2.7-21.85
			c-1.433-3.367-3.767-6.017-7-7.95c-2.967-1.767-6.3-2.717-10-2.85c-3.633-0.1-6.967,0.6-10,2.1c-3.2,1.6-5.517,3.867-6.95,6.8
			c-1.733,3.633-2.566,7.184-2.5,10.65c0.067,2.967,0.833,6.017,2.3,9.15c1.033,2.233,2.65,4.933,4.85,8.1
			c3.167,4.5,4.917,7.034,5.25,7.6c2.533,4.033,4.367,7.934,5.5,11.7C92.767-2.533,93.067-1.067,93.1,0z M234.6-77.15
			c-0.267,0.3-0.567,0.533-0.9,0.7c-0.333,0.167-0.733,0.25-1.2,0.25c-0.433,0-0.817-0.083-1.15-0.25
			c-0.333-0.167-0.617-0.4-0.85-0.7c-0.233-0.3-0.417-0.667-0.55-1.1c-0.133-0.4-0.2-0.85-0.2-1.35c0-0.533,0.067-1,0.2-1.4
			c0.1-0.4,0.283-0.75,0.55-1.05c0.233-0.3,0.517-0.534,0.85-0.7c0.333-0.167,0.717-0.25,1.15-0.25c0.467,0,0.867,0.083,1.2,0.25
			c0.333,0.167,0.633,0.4,0.9,0.7c0.2,0.3,0.367,0.65,0.5,1.05s0.2,0.867,0.2,1.4c0,0.5-0.066,0.967-0.2,1.4
			C234.967-77.767,234.8-77.417,234.6-77.15z M236.2-75.55c0.466-0.467,0.833-1.034,1.1-1.7c0.3-0.667,0.45-1.45,0.45-2.35
			c0-0.933-0.133-1.717-0.4-2.35c-0.3-0.7-0.667-1.267-1.1-1.7c-0.467-0.467-1.017-0.817-1.65-1.05c-0.7-0.233-1.4-0.35-2.1-0.35
			c-0.667,0-1.333,0.117-2,0.35c-0.633,0.233-1.183,0.583-1.65,1.05c-0.467,0.433-0.833,1-1.1,1.7c-0.267,0.633-0.4,1.417-0.4,2.35
			c0,0.9,0.133,1.684,0.4,2.35s0.65,1.233,1.15,1.7c0.467,0.466,1.017,0.816,1.65,1.05c0.6,0.233,1.25,0.35,1.95,0.35
			c0.733,0,1.417-0.117,2.05-0.35S235.733-75.083,236.2-75.55z M239.65-74.4H242v-10.45h-2.35V-74.4z M213.05-74.4v-2h-3.15v-8.45
			h-2.35v8.45h-3.15v2H213.05z M218.15-74.55c0.533,0.1,1.067,0.167,1.6,0.2l1.55,0.1c1.567,0,2.75-0.283,3.55-0.85
			c0.833-0.533,1.25-1.433,1.25-2.7c0-1.267-0.417-2.167-1.25-2.7c-0.833-0.567-2.033-0.85-3.6-0.85h-0.75v-3.5h-2.35V-74.55z
			 M221.45-76.3h-0.95v-3.05h0.75c0.8,0,1.4,0.117,1.8,0.35c0.434,0.233,0.65,0.65,0.65,1.25c0,0.3-0.05,0.533-0.15,0.7
			c-0.1,0.2-0.25,0.35-0.45,0.45c-0.2,0.1-0.45,0.184-0.75,0.25C222.117-76.317,221.817-76.3,221.45-76.3z M194.6-74.4v-1.95h-4.7
			v-2.05h4.15v-1.95h-4.15v-2.5h5.05v-2h-7.4v10.45H194.6z M201.5-76.35c-0.333,0.133-0.767,0.2-1.3,0.2
			c-0.567,0-0.967-0.083-1.2-0.25c-0.233-0.133-0.35-0.367-0.35-0.7c0-0.2,0.033-0.367,0.1-0.5c0.133-0.133,0.267-0.25,0.4-0.35
			c0.167-0.1,0.367-0.2,0.6-0.3l0.7-0.25c0.533-0.2,1-0.4,1.4-0.6c0.433-0.2,0.767-0.433,1-0.7c0.267-0.233,0.467-0.534,0.6-0.9
			s0.2-0.8,0.2-1.3c0-0.967-0.333-1.717-1-2.25c-0.7-0.533-1.733-0.8-3.1-0.8c-0.4,0-0.816,0.033-1.25,0.1l-1,0.2
			c-0.267,0.067-0.517,0.15-0.75,0.25l-0.5,0.25l0.65,1.85c0.367-0.167,0.75-0.317,1.15-0.45c0.467-0.133,1.033-0.2,1.7-0.2
			c0.333,0,0.6,0.033,0.8,0.1c0.233,0.067,0.417,0.133,0.55,0.2c0.1,0.1,0.184,0.217,0.25,0.35c0.033,0.133,0.05,0.283,0.05,0.45
			c0,0.333-0.15,0.617-0.45,0.85c-0.3,0.2-0.85,0.45-1.65,0.75c-0.2,0.033-0.55,0.167-1.05,0.4c-0.333,0.133-0.633,0.333-0.9,0.6
			c-0.267,0.2-0.483,0.483-0.65,0.85c-0.2,0.333-0.3,0.733-0.3,1.2c0,0.466,0.1,0.9,0.3,1.3c0.167,0.4,0.417,0.733,0.75,1
			s0.733,0.483,1.2,0.65c0.466,0.133,1,0.2,1.6,0.2c0.733,0,1.35-0.083,1.85-0.25c0.533-0.133,0.95-0.283,1.25-0.45l-0.65-1.9
			C202.167-76.583,201.833-76.45,201.5-76.35z M165.4-84.85h-2.5l-0.75,2.3h-4.1l-0.75-2.3h-2.45L159-74.4h2.25L165.4-84.85z
			 M171.65-76.6c-0.367,0.2-0.933,0.3-1.7,0.3h-0.85v-2.85h0.65c0.9,0,1.55,0.1,1.95,0.3c0.367,0.233,0.55,0.617,0.55,1.15
			C172.25-77.167,172.05-76.8,171.65-76.6z M174.7-77.7c0-0.733-0.184-1.333-0.55-1.8c-0.333-0.467-0.816-0.817-1.45-1.05l2.6-4.3
			h-2.6l-1.85,3c-0.2,0.333-0.4,0.6-0.6,0.8h-1.15v-3.8h-2.35v10.3c0.567,0.1,1.1,0.167,1.6,0.2l1.45,0.1
			c1.567,0,2.767-0.283,3.6-0.85C174.267-75.667,174.7-76.533,174.7-77.7z M178.2-74.4l2.1-6c0.3-0.767,0.517-1.317,0.65-1.65
			l2.75,7.65h2.5l-2.95-7.7c-0.4-1-0.8-1.917-1.2-2.75h-2.25l-4.2,10.45H178.2z M191.5-5.95v-36.2c0-3.434-0.483-6.567-1.45-9.4
			c-0.966-2.9-2.417-5.35-4.35-7.35c-1.967-2.067-4.467-3.65-7.5-4.75c-3.067-1.133-6.65-1.7-10.75-1.7
			c-4.067,0-7.6,0.583-10.6,1.75c-2.967,1.133-5.417,2.717-7.35,4.75c-1.9,2.067-3.317,4.517-4.25,7.35
			c-0.933,2.8-1.4,5.917-1.4,9.35v36.2h13.1v-35.1c0-2.333,0.267-4.333,0.8-6c0.533-1.667,1.267-3.017,2.2-4.05
			c0.933-1.033,2.05-1.767,3.35-2.2c1.3-0.467,2.733-0.7,4.3-0.7c3.2,0,5.8,0.983,7.8,2.95c1.967,1.966,2.95,5.3,2.95,10v35.1H191.5
			z M319.25-74.4v-2h-3.15v-8.45h-2.35v8.45h-3.15v2H319.25z M300.55-84.85h-2.35v10.45h2.35V-84.85z M295.85-84.85h-2
			c-0.667,1.2-1.383,2.383-2.15,3.55c-0.833,1.233-1.684,2.333-2.55,3.3v-6.85h-2.3v10.45h1.9c0.367-0.333,0.733-0.733,1.1-1.2
			l3.65-4.95v6.15h2.35V-84.85z M303.35-79.35c-0.267,0.2-0.483,0.483-0.65,0.85c-0.167,0.333-0.25,0.733-0.25,1.2
			c0,0.466,0.083,0.9,0.25,1.3c0.167,0.4,0.417,0.733,0.75,1c0.333,0.267,0.75,0.483,1.25,0.65c0.433,0.133,0.95,0.2,1.55,0.2
			c0.733,0,1.35-0.083,1.85-0.25c0.533-0.133,0.95-0.283,1.25-0.45l-0.65-1.9c-0.333,0.167-0.667,0.3-1,0.4
			c-0.333,0.133-0.75,0.2-1.25,0.2c-0.6,0-1.017-0.083-1.25-0.25c-0.233-0.133-0.35-0.367-0.35-0.7c0-0.2,0.05-0.367,0.15-0.5
			s0.217-0.25,0.35-0.35c0.167-0.1,0.367-0.2,0.6-0.3l0.7-0.25c0.533-0.2,1.017-0.4,1.45-0.6c0.4-0.2,0.733-0.433,1-0.7
			c0.233-0.233,0.417-0.534,0.55-0.9s0.2-0.8,0.2-1.3c0-0.967-0.333-1.717-1-2.25c-0.7-0.533-1.733-0.8-3.1-0.8
			c-0.4,0-0.817,0.033-1.25,0.1l-1,0.2l-1.25,0.5l0.65,1.85c0.367-0.167,0.75-0.317,1.15-0.45c0.467-0.133,1.034-0.2,1.7-0.2
			c0.333,0,0.6,0.033,0.8,0.1c0.233,0.067,0.417,0.133,0.55,0.2c0.1,0.1,0.183,0.217,0.25,0.35c0.066,0.133,0.1,0.283,0.1,0.45
			c0,0.333-0.167,0.617-0.5,0.85c-0.3,0.2-0.85,0.45-1.65,0.75c-0.2,0.033-0.55,0.167-1.05,0.4
			C303.95-79.817,303.65-79.617,303.35-79.35z M282.15-84.85v10.45h2.35v-10.45H282.15z M277.7-84.85l-0.1,3.35
			c-0.067,0.967-0.15,2.167-0.25,3.6l-2.4-5.6h-1.65l-2.4,5.6l-0.35-6.95h-2.3l0.85,10.45h2.25l2.85-6.2l2.8,6.2h2.15L280-84.85
			H277.7z M253.3-74.4v-10.45h-1.95c-0.7,1.2-1.434,2.383-2.2,3.55c-0.8,1.233-1.633,2.333-2.5,3.3v-6.85h-2.3v10.45h1.9
			c0.333-0.333,0.7-0.733,1.1-1.2l3.6-4.95v6.15H253.3z M254.8-76.4v2h8.65v-2h-3.15v-8.45h-2.35v8.45H254.8z M246.15-5.95V-17.1
			H228.6v-47.05h-13.1v47.05h-17.55v11.15H246.15z M288.05-5.95h13.1v-58.2h-13.1v24.7h-22v-24.7h-13.1v58.2h13.1V-28.2h22V-5.95z
			 M349.8-74.4c0.567-0.133,1-0.283,1.3-0.45l-0.7-1.9c-0.3,0.167-0.617,0.3-0.95,0.4c-0.333,0.133-0.767,0.2-1.3,0.2
			c-0.566,0-0.967-0.083-1.2-0.25c-0.267-0.133-0.4-0.367-0.4-0.7c0-0.2,0.05-0.367,0.15-0.5c0.1-0.133,0.233-0.25,0.4-0.35
			c0.167-0.1,0.35-0.2,0.55-0.3l0.7-0.25c0.533-0.2,1.017-0.4,1.45-0.6c0.4-0.2,0.733-0.433,1-0.7c0.267-0.233,0.467-0.534,0.6-0.9
			s0.2-0.8,0.2-1.3c0-0.967-0.35-1.717-1.05-2.25c-0.667-0.533-1.7-0.8-3.1-0.8c-0.367,0-0.784,0.033-1.25,0.1l-0.95,0.2l-0.75,0.25
			l-0.5,0.25l0.65,1.85c0.367-0.167,0.75-0.317,1.15-0.45c0.434-0.133,0.983-0.2,1.65-0.2c0.367,0,0.65,0.033,0.85,0.1
			c0.233,0.067,0.4,0.133,0.5,0.2c0.133,0.1,0.233,0.217,0.3,0.35c0.033,0.133,0.05,0.283,0.05,0.45c0,0.333-0.167,0.617-0.5,0.85
			c-0.267,0.2-0.816,0.45-1.65,0.75c-0.2,0.033-0.533,0.167-1,0.4c-0.333,0.133-0.633,0.333-0.9,0.6c-0.3,0.2-0.533,0.483-0.7,0.85
			c-0.167,0.333-0.25,0.733-0.25,1.2c0,0.466,0.083,0.9,0.25,1.3c0.2,0.4,0.467,0.733,0.8,1c0.333,0.267,0.733,0.483,1.2,0.65
			c0.434,0.133,0.967,0.2,1.6,0.2C348.7-74.15,349.3-74.233,349.8-74.4z M325.55-78.85c0.4,0.233,0.6,0.617,0.6,1.15
			c0,0.534-0.2,0.9-0.6,1.1c-0.367,0.2-0.933,0.3-1.7,0.3H323v-2.85h0.65C324.55-79.15,325.183-79.05,325.55-78.85z M327.3-75.1
			c0.833-0.566,1.25-1.433,1.25-2.6c0-0.733-0.167-1.333-0.5-1.8c-0.333-0.467-0.816-0.817-1.45-1.05l2.6-4.3h-2.65l-1.8,3
			c-0.2,0.333-0.4,0.6-0.6,0.8H323v-3.8h-2.35v10.3c0.567,0.1,1.1,0.167,1.6,0.2l1.45,0.1C325.267-74.25,326.467-74.533,327.3-75.1z
			 M330.8-74.4h2.35v-10.45h-2.35V-74.4z M342-78.4v-1.95h-4.2v-2.5h5.05v-2h-7.4v10.45h7.05v-1.95h-4.7v-2.05H342z M350.05-8.6
			l-3.8-10.35c-1.633,0.833-3.433,1.567-5.4,2.2c-2,0.667-4.4,1-7.2,1c-3.133,0-5.383-0.433-6.75-1.3s-2.05-2.2-2.05-4
			c0-1.067,0.25-1.967,0.75-2.7s1.217-1.383,2.15-1.95c0.9-0.6,1.967-1.133,3.2-1.6c1.233-0.5,2.55-1,3.95-1.5
			c2.967-1.067,5.6-2.167,7.9-3.3c2.267-1.1,4.133-2.383,5.6-3.85c1.5-1.466,2.6-3.167,3.3-5.1c0.733-1.967,1.1-4.35,1.1-7.15
			c0-5.433-1.9-9.65-5.7-12.65c-3.833-3-9.567-4.5-17.2-4.5c-2.566,0-4.9,0.167-7,0.5c-2.1,0.3-3.933,0.667-5.5,1.1
			c-1.633,0.467-3,0.95-4.1,1.45c-1.2,0.5-2.167,0.966-2.9,1.4l3.65,10.45c1.767-0.966,3.917-1.833,6.45-2.6
			c2.533-0.733,5.667-1.1,9.4-1.1c1.833,0,3.35,0.15,4.55,0.45c1.2,0.3,2.167,0.717,2.9,1.25c0.733,0.534,1.233,1.167,1.5,1.9
			c0.3,0.7,0.45,1.517,0.45,2.45c0,1.9-0.9,3.483-2.7,4.75c-1.767,1.233-4.85,2.583-9.25,4.05c-1.967,0.7-3.867,1.466-5.7,2.3
			c-1.933,0.9-3.65,2-5.15,3.3c-1.5,1.3-2.733,2.9-3.7,4.8c-0.933,1.867-1.4,4.15-1.4,6.85c0,2.667,0.5,5.083,1.5,7.25
			c1.033,2.167,2.467,4,4.3,5.5c1.833,1.5,4.066,2.667,6.7,3.5c2.633,0.8,5.6,1.2,8.9,1.2c3.934,0,7.333-0.417,10.2-1.25
			C345.833-6.683,348.183-7.6,350.05-8.6z M117.25-69.45c0.033-0.667-0.05-1.35-0.25-2.05c-0.6-2.233-2.167-4.083-4.7-5.55
			c-3-1.767-6.167-3.05-9.5-3.85c-3.333-0.767-7.117-1.133-11.35-1.1c-3.5,0-7,0.45-10.5,1.35c-3.867,1-6.983,2.4-9.35,4.2
			c-1.967,1.5-3.217,3.1-3.75,4.8c-0.2,0.533-0.3,1.05-0.3,1.55l0.05,0.6l0.15-0.65c0.167-0.467,0.4-0.95,0.7-1.45
			c0.9-1.633,2.25-2.967,4.05-4c2.467-1.467,4.9-2.583,7.3-3.35c3.567-1.1,7.4-1.633,11.5-1.6c4.667,0,8.633,0.4,11.9,1.2
			c2.966,0.733,5.883,1.934,8.75,3.6c2,1.167,3.466,2.7,4.4,4.6c0.467,0.967,0.75,1.816,0.85,2.55L117.25-69.45z M85.5-70.05
			l0.05,0.2l0.05-0.2c0.033-0.133,0.1-0.284,0.2-0.45c0.267-0.433,0.65-0.8,1.15-1.1c0.733-0.433,1.45-0.767,2.15-1
			c1.033-0.333,2.15-0.483,3.35-0.45c1.333,0,2.483,0.117,3.45,0.35c0.867,0.2,1.717,0.55,2.55,1.05c0.566,0.333,1,0.767,1.3,1.3
			c0.133,0.3,0.2,0.55,0.2,0.75l0.05-0.25c0-0.2-0.033-0.4-0.1-0.6c-0.167-0.633-0.617-1.167-1.35-1.6
			c-0.867-0.5-1.783-0.867-2.75-1.1c-0.966-0.233-2.066-0.35-3.3-0.35c-1.033,0-2.05,0.133-3.05,0.4
			c-1.167,0.3-2.083,0.717-2.75,1.25c-0.567,0.434-0.934,0.883-1.1,1.35C85.533-70.333,85.5-70.183,85.5-70.05z M90.9-90
			c-5.9,0.033-11.783,0.817-17.65,2.35c-6.567,1.7-11.833,4.066-15.8,7.1c-3.3,2.5-5.417,5.2-6.35,8.1c-0.3,0.9-0.467,1.75-0.5,2.55
			l0.05,1l0.3-1c0.267-0.867,0.65-1.717,1.15-2.55c1.566-2.733,3.85-4.983,6.85-6.75c4.2-2.433,8.316-4.3,12.35-5.6
			c5.967-1.867,12.434-2.784,19.4-2.75c7.867,0.033,14.55,0.733,20.05,2.1c5.033,1.233,9.967,3.25,14.8,6.05
			c3.367,1.967,5.85,4.566,7.45,7.8c0.767,1.6,1.217,3.017,1.35,4.25l0.15-1.4c0.033-1.167-0.117-2.333-0.45-3.5
			c-1.033-3.733-3.683-6.85-7.95-9.35c-5.067-2.967-10.417-5.117-16.05-6.45C104.45-89.383,98.067-90.033,90.9-90z M54.7-6.3
			c-3.133-6.133-6.434-12.2-9.9-18.2c-3.466-5.967-7.083-11.883-10.85-17.75V-64.5h-13.1v22.1c-3.833,5.933-7.467,11.867-10.9,17.8
			C6.45-18.533,3.133-12.433,0-6.3h15.2c1.8-4.034,3.733-8.017,5.8-11.95c2.033-3.933,4.25-7.9,6.65-11.9
			c2.4,4.033,4.633,8,6.7,11.9c2.1,3.833,4.066,7.817,5.9,11.95H54.7z M153.45-74.4v-10.45h-2.35v4.45h-4v-4.45h-2.3v10.45h2.3v-4h4
			v4H153.45z M158.6-80.7h2.95l-1.45,3.95L158.6-80.7z"/>
	</g>
</symbol>
<use xlink:href="#HPMYouthsLogo90px"  width="352.8" height="90.001" y="-90.001" transform="matrix(1 0 0 -1 0.1001 0)" overflow="visible"/>
</svg>
