<?xml version="1.0" encoding="utf-8"?>
<!-- Generator: Adobe Illustrator 15.0.0, SVG Export Plug-In . SVG Version: 6.00 Build 0)  -->
<!DOCTYPE svg PUBLIC "-//W3C//DTD SVG 1.1//EN" "http://www.w3.org/Graphics/SVG/1.1/DTD/svg11.dtd">
<svg version="1.1" id="Layer_4" xmlns="http://www.w3.org/2000/svg" xmlns:xlink="http://www.w3.org/1999/xlink" x="0px" y="0px"
	 width="1430px" height="366px" viewBox="0 0 1430 366" enable-background="new 0 0 1430 366" xml:space="preserve">
<path fill-rule="evenodd" clip-rule="evenodd" fill="#FFFFFF" d="M378,0.95c1.533,5.9,3.583,12.6,6.15,20.1
	c5.1,15,10.25,26.5,15.45,34.5c2.066,3.2,7.583,10.733,16.55,22.6c9.2,12.8,16.65,24.65,22.35,35.55
	c17.7,33.9,21.283,63.367,10.75,88.399c-5.733,13.667-15.133,24.384-28.2,32.15c-12,7.134-25.483,10.95-40.45,11.45
	c-14.733,0.467-28.217-2.351-40.45-8.45c-13-6.5-22.367-15.667-28.1-27.5c-7.1-14.7-10.483-29.083-10.15-43.15
	c0.3-11.967,3.367-24.267,9.2-36.9c4.2-9.034,10.767-19.967,19.7-32.8c12.733-18.233,19.833-28.517,21.3-30.85
	c10.2-16.3,17.566-32.033,22.1-47.2C376.5,11.25,377.767,5.283,378,0.95z M900.95,309.9c-0.967-0.167-2.233-0.25-3.8-0.25
	l-3.801,0.149V322h3c3.334,0,5.817-0.45,7.45-1.35c1.667-0.9,2.5-2.567,2.5-5c0-1.2-0.217-2.167-0.649-2.9
	c-0.4-0.767-1-1.384-1.801-1.85C903.15,310.467,902.184,310.134,900.95,309.9z M950.35,313.15c-0.966-1.2-2.149-2.134-3.55-2.801
	c-1.366-0.633-2.95-0.949-4.75-0.949c-1.833,0-3.416,0.333-4.75,1c-1.366,0.666-2.533,1.6-3.5,2.8c-0.967,1.233-1.7,2.684-2.2,4.35
	c-0.5,1.667-0.75,3.517-0.75,5.55c0,2.101,0.25,3.967,0.75,5.601c0.467,1.6,1.2,3.033,2.2,4.3c0.967,1.2,2.134,2.134,3.5,2.8
	c1.367,0.634,2.95,0.95,4.75,0.95s3.384-0.316,4.75-0.95c1.4-0.666,2.584-1.6,3.55-2.8c0.9-1.167,1.634-2.6,2.2-4.3
	c0.5-1.634,0.75-3.5,0.75-5.601c0-2.066-0.25-3.949-0.75-5.649C951.983,315.684,951.25,314.25,950.35,313.15z M956.95,306.65
	c1.899,1.866,3.399,4.166,4.5,6.899c1.1,2.767,1.649,5.95,1.649,9.55c0,3.7-0.533,6.884-1.6,9.551c-1.1,2.767-2.566,5.066-4.4,6.899
	c-1.933,1.867-4.166,3.267-6.699,4.2c-2.767,0.9-5.551,1.35-8.351,1.35c-2.733,0-5.45-0.449-8.149-1.35
	c-2.567-0.967-4.801-2.366-6.7-4.2c-1.934-1.833-3.45-4.133-4.55-6.899c-1.067-2.667-1.601-5.851-1.601-9.551
	c0-3.666,0.566-6.85,1.7-9.55c1.1-2.733,2.634-5.033,4.6-6.899c1.9-1.9,4.134-3.301,6.7-4.2c2.5-0.934,5.167-1.4,8-1.4
	c2.967,0,5.7,0.467,8.2,1.4C952.816,303.35,955.05,304.75,956.95,306.65z M883.85,302.6c2.233-0.433,4.434-0.716,6.601-0.85
	l6.1-0.25c6.334,0,11.167,1.116,14.5,3.35c3.367,2.167,5.05,5.801,5.05,10.9s-1.699,8.767-5.1,11c-3.366,2.233-8.25,3.35-14.65,3.35
	h-3v14.15h-9.5V302.6z M863.2,302v8.1h-12.75v34.15h-9.5V310.1H828.2V302H863.2z M769.55,318.3h16.9v7.8h-16.9v10.2H790v7.95h-29.95
	V302h28.55v8h-19.05V318.3z M796.25,308.45c0.7-1.533,1.733-2.867,3.1-4c1.334-1.101,2.967-1.95,4.9-2.55
	c1.8-0.567,3.95-0.851,6.45-0.851c2.899,0,5.366,0.3,7.399,0.9c2.2,0.633,3.9,1.3,5.101,2l-2.7,7.5c-1.3-0.667-2.616-1.2-3.95-1.601
	c-1.366-0.466-3.1-0.699-5.2-0.699c-2.333,0-3.983,0.316-4.949,0.949c-1,0.601-1.5,1.567-1.5,2.9c0,0.733,0.183,1.384,0.55,1.95
	c0.467,0.6,1,1.066,1.6,1.399c0.667,0.467,1.434,0.867,2.3,1.2l2.9,1.05c2.134,0.767,4.05,1.567,5.75,2.4
	c1.667,0.833,3.017,1.767,4.05,2.8s1.834,2.267,2.4,3.7c0.533,1.5,0.8,3.233,0.8,5.2c0,3.934-1.384,6.983-4.15,9.149
	c-2.767,2.167-6.933,3.25-12.5,3.25c-1.6,0-3.3-0.116-5.1-0.35l-3.95-0.8c-1.1-0.267-2.1-0.601-3-1l-2.1-1.05l2.649-7.551
	c1.5,0.733,3.067,1.351,4.7,1.851c1.8,0.533,4.066,0.8,6.8,0.8c1.367,0,2.467-0.1,3.301-0.3c0.933-0.267,1.633-0.584,2.1-0.95
	c0.5-0.333,0.866-0.783,1.1-1.35c0.2-0.534,0.301-1.134,0.301-1.801c0-1.366-0.65-2.5-1.95-3.399c-1.2-0.867-3.434-1.867-6.7-3
	c-0.8-0.267-2.184-0.816-4.15-1.65c-1.333-0.6-2.566-1.399-3.699-2.399c-1.101-0.934-2-2.084-2.7-3.45c-0.7-1.4-1.05-3.066-1.05-5
	C795.15,311.833,795.517,310.083,796.25,308.45z M654.95,327.55l-6-15.95l-6.05,15.95H654.95z M653.65,302l8.15,18.75l8.75,23.5
	h-10.2l-3.1-9.15H640.7l-3.1,9.15h-9.85l8.7-23.5L644.6,302H653.65z M695.85,319.95c1.533-0.9,2.3-2.434,2.3-4.601
	c0-2.1-0.783-3.566-2.35-4.399c-1.5-0.867-3.8-1.3-6.9-1.3l-3.45,0.149v11.5h2.7C691.75,321.3,694.316,320.85,695.85,319.95z
	 M702.9,304.9c3.4,2.267,5.1,5.767,5.1,10.5c0,2.966-0.684,5.383-2.05,7.25c-1.4,1.866-3.367,3.316-5.9,4.35l5.45,7.9l5.05,9.35
	H699.9l-7.3-12.15c-0.9-1.333-1.717-2.416-2.45-3.25h-4.7v15.4h-9.5V302.6c2.267-0.433,4.417-0.716,6.45-0.85l5.95-0.25
	C694.684,301.5,699.533,302.634,702.9,304.9z M711.8,302h10.5l8.45,24.4c1.167,3.1,2.05,5.316,2.65,6.649L744.55,302h10.101
	l-7.301,19.9l-4.649,11.35c-1.7,4.066-3.351,7.733-4.95,11h-9.05l-9.65-22.35L711.8,302z M722.95,167.1V25H776v146.55
	c0,13.867-1.917,26.55-5.75,38.05c-3.934,11.667-9.833,21.584-17.7,29.75c-7.934,8.301-18.017,14.717-30.25,19.25
	c-12.4,4.5-26.917,6.75-43.55,6.75c-16.434,0-30.7-2.316-42.8-6.949c-12.034-4.634-21.95-11.084-29.75-19.351
	c-7.8-8.267-13.583-18.133-17.35-29.6c-3.733-11.4-5.6-24.033-5.6-37.9V25h53v142.1c0,9.467,1.083,17.583,3.25,24.35
	c2.167,6.666,5.117,12.1,8.85,16.3c3.767,4.233,8.3,7.233,13.6,9c5.267,1.833,11.1,2.75,17.5,2.75c12.9,0,23.383-3.967,31.45-11.9
	C718.934,199.667,722.95,186.167,722.95,167.1z M1247.85,301.95c2.2,0.633,3.9,1.3,5.101,2l-2.7,7.5
	c-1.3-0.667-2.617-1.2-3.95-1.601c-1.366-0.466-3.1-0.699-5.2-0.699c-2.333,0-3.982,0.316-4.949,0.949c-1,0.601-1.5,1.567-1.5,2.9
	c0,0.733,0.183,1.384,0.55,1.95c0.467,0.6,1,1.066,1.6,1.399c0.667,0.467,1.434,0.867,2.3,1.2l2.9,1.05
	c2.133,0.767,4.05,1.567,5.75,2.4c1.667,0.833,3.017,1.767,4.05,2.8s1.833,2.267,2.4,3.7c0.533,1.5,0.8,3.233,0.8,5.2
	c0,3.934-1.383,6.983-4.15,9.149c-2.767,2.167-6.933,3.25-12.5,3.25c-1.6,0-3.3-0.116-5.1-0.35l-3.95-0.8l-3-1l-2.1-1.05
	l2.649-7.551c1.5,0.733,3.067,1.351,4.7,1.851c1.8,0.533,4.067,0.8,6.8,0.8c1.367,0,2.467-0.1,3.301-0.3
	c0.933-0.267,1.633-0.584,2.1-0.95c0.5-0.333,0.867-0.783,1.1-1.35c0.2-0.534,0.301-1.134,0.301-1.801c0-1.366-0.65-2.5-1.95-3.399
	c-1.2-0.867-3.434-1.867-6.7-3c-0.8-0.267-2.184-0.816-4.15-1.65c-1.333-0.6-2.566-1.399-3.699-2.399c-1.101-0.934-2-2.084-2.7-3.45
	c-0.7-1.4-1.05-3.066-1.05-5c0-1.867,0.366-3.617,1.1-5.25c0.7-1.533,1.733-2.867,3.1-4c1.334-1.101,2.967-1.95,4.9-2.55
	c1.8-0.567,3.95-0.851,6.45-0.851C1243.35,301.05,1245.816,301.35,1247.85,301.95z M1280.15,344.25h-9.5V310.1h-12.75V302h35v8.1
	h-12.75V344.25z M1142.85,302h9.5v42.25h-9.5V302z M1184.05,320.1l4.7,6.851V302h9.45v42.25h-8c-2.733-4.866-5.667-9.634-8.8-14.3
	c-3.301-4.934-6.684-9.384-10.15-13.351v27.65h-9.4V302h7.75c1.434,1.434,2.917,3.083,4.45,4.95L1184.05,320.1z M1207.85,344.25V302
	h9.5v42.25H1207.85z M1122.1,302h8.65l2.05,20.3l1.3,21.95h-9.3l-0.45-13.4c-0.166-3.933-0.482-8.816-0.949-14.649l-9.7,22.7h-6.65
	l-9.75-22.7l-1.399,28.05h-9.25l2.199-32.8L1090,302h9.1l11.5,25.2l5.95-13.8L1122.1,302z M980.35,302v42.25h-9.5V302H980.35z
	 M1032.15,310.1V302h35v8.1h-12.75v34.15h-9.5V310.1H1032.15z M1016.7,326.95V302h9.45v42.25h-8
	c-2.733-4.866-5.667-9.634-8.801-14.3c-3.3-4.934-6.683-9.384-10.149-13.351v27.65h-9.4V302h7.75c1.434,1.434,2.917,3.083,4.45,4.95
	l10,13.149L1016.7,326.95z M997.25,25v45.2H926.2V260.6h-53.05V70.2H802.1V25H997.25z M1166.7,25h53.05v235.6h-53.05v-99.95H1077.6
	v99.95h-53V25h53v90.1h89.101V25z M1420.6,323.8c1.033,1.033,1.834,2.267,2.4,3.7c0.533,1.5,0.8,3.233,0.8,5.2
	c0,3.934-1.383,6.983-4.149,9.149c-2.768,2.167-6.934,3.25-12.5,3.25c-1.601,0-3.301-0.116-5.101-0.35l-3.95-0.8l-3-1l-2.1-1.05
	l2.65-7.551c1.5,0.733,3.066,1.351,4.699,1.851c1.801,0.533,4.067,0.8,6.801,0.8c1.366,0,2.467-0.1,3.3-0.3
	c0.933-0.267,1.633-0.584,2.1-0.95c0.5-0.333,0.867-0.783,1.101-1.35c0.199-0.534,0.3-1.134,0.3-1.801c0-1.366-0.65-2.5-1.95-3.399
	c-1.2-0.867-3.434-1.867-6.7-3c-0.8-0.267-2.183-0.816-4.149-1.65c-1.334-0.6-2.567-1.399-3.7-2.399c-1.101-0.934-2-2.084-2.7-3.45
	c-0.7-1.4-1.05-3.066-1.05-5c0-1.867,0.366-3.617,1.1-5.25c0.7-1.533,1.733-2.867,3.101-4c1.333-1.101,2.967-1.95,4.899-2.55
	c1.8-0.567,3.95-0.851,6.45-0.851c2.9,0,5.367,0.3,7.4,0.9c2.199,0.633,3.899,1.3,5.1,2l-2.7,7.5c-1.3-0.667-2.616-1.2-3.95-1.601
	c-1.366-0.466-3.1-0.699-5.199-0.699c-2.334,0-3.983,0.316-4.95,0.949c-1,0.601-1.5,1.567-1.5,2.9c0,0.733,0.183,1.384,0.55,1.95
	c0.467,0.6,1,1.066,1.6,1.399c0.667,0.467,1.434,0.867,2.301,1.2l2.899,1.05c2.134,0.767,4.05,1.567,5.75,2.4
	C1418.217,321.833,1419.566,322.767,1420.6,323.8z M1325.55,304.9c3.4,2.267,5.101,5.767,5.101,10.5c0,2.966-0.684,5.383-2.051,7.25
	c-1.399,1.866-3.366,3.316-5.899,4.35l5.45,7.9l5.05,9.35h-10.65l-7.3-12.15c-0.9-1.333-1.717-2.416-2.45-3.25h-4.7v15.4h-9.5V302.6
	c2.268-0.433,4.417-0.716,6.45-0.85l5.95-0.25C1317.333,301.5,1322.184,302.634,1325.55,304.9z M1318.5,319.95
	c1.533-0.9,2.3-2.434,2.3-4.601c0-2.1-0.783-3.566-2.35-4.399c-1.5-0.867-3.8-1.3-6.9-1.3l-3.45,0.149v11.5h2.7
	C1314.4,321.3,1316.967,320.85,1318.5,319.95z M1339.6,302h9.5v42.25h-9.5V302z M1358.55,344.25V302h28.55v8h-19.05v8.3h16.9v7.8
	h-16.9v10.2h20.45v7.95H1358.55z M1402.25,77.7c-6.633-3.4-13.95-6.4-21.95-9c-8.033-2.6-17.717-3.9-29.05-3.9
	c-12.7,0-21.833,1.75-27.4,5.25c-5.533,3.5-8.3,8.883-8.3,16.15c0,4.333,1.017,7.966,3.05,10.9c2.033,2.933,4.917,5.583,8.65,7.95
	c3.7,2.367,8.017,4.534,12.95,6.5c5.1,2,10.483,3.983,16.149,5.95c11.967,4.4,22.617,8.867,31.95,13.4
	c9.134,4.5,16.667,9.667,22.601,15.5c6.033,5.934,10.517,12.833,13.449,20.7c2.934,7.9,4.4,17.534,4.4,28.9
	c0,22-7.7,39.066-23.1,51.2c-15.467,12.1-38.7,18.149-69.7,18.149c-10.333,0-19.75-0.633-28.25-1.899
	c-8.533-1.267-15.95-2.783-22.25-4.55c-6.567-1.834-12.117-3.75-16.65-5.75c-4.833-2.134-8.75-4.067-11.75-5.801L1272,205.2
	c7.1,3.866,15.783,7.316,26.05,10.35c10.2,3.066,22.833,4.601,37.9,4.601c7.533,0,13.7-0.617,18.5-1.851
	c4.866-1.233,8.783-2.934,11.75-5.1c2.967-2.167,5-4.717,6.1-7.65c1.134-2.899,1.7-6.184,1.7-9.85c0-7.733-3.617-14.15-10.85-19.25
	c-7.134-5-19.601-10.483-37.4-16.45c-8.033-2.867-15.75-5.983-23.15-9.35c-7.767-3.6-14.666-8.033-20.699-13.3
	c-6.134-5.3-11.134-11.75-15-19.35c-3.834-7.567-5.75-16.8-5.75-27.7c0-10.833,2.033-20.65,6.1-29.45
	c4.133-8.8,9.917-16.217,17.35-22.25c7.5-6.1,16.567-10.8,27.2-14.1c10.667-3.3,22.684-4.95,36.05-4.95
	c15.834,0,29.551,1.7,41.15,5.1c11.5,3.4,21.017,7.15,28.55,11.25L1402.25,77.7z M405.8,283.55c0.034,0.8-0.066,1.601-0.3,2.4
	c-0.7,2.633-2.55,4.833-5.55,6.6c-3.534,2.066-7.267,3.566-11.2,4.5c-3.9,0.9-8.35,1.334-13.35,1.3c-4.133,0-8.25-0.533-12.35-1.6
	c-4.6-1.2-8.283-2.85-11.05-4.95c-2.3-1.767-3.783-3.649-4.45-5.649c-0.2-0.634-0.3-1.233-0.3-1.801l0.05-0.699l0.2,0.699
	c0.167,0.601,0.433,1.2,0.8,1.801c1.067,1.866,2.65,3.416,4.75,4.649c2.934,1.733,5.817,3.05,8.65,3.95
	c4.167,1.3,8.683,1.934,13.55,1.9c5.467-0.034,10.117-0.517,13.95-1.45c3.533-0.867,6.983-2.283,10.35-4.25
	c2.367-1.367,4.1-3.167,5.2-5.4c0.567-1.133,0.883-2.133,0.95-3L405.8,283.55z M475.7,281.95c0.1,2.767-0.25,5.55-1.05,8.35
	c-2.467,8.967-8.833,16.467-19.1,22.5c-12.133,7.134-24.95,12.3-38.45,15.5c-13.4,3.167-28.7,4.684-45.9,4.55
	c-14.2-0.033-28.333-1.899-42.4-5.6c-15.733-4.066-28.367-9.733-37.9-17c-7.933-6.033-13.017-12.5-15.25-19.4
	c-0.7-2.166-1.066-4.233-1.1-6.199l0.15-2.351l0.65,2.45c0.667,2,1.583,4.017,2.75,6.05c3.733,6.533,9.2,11.917,16.4,16.15
	c10.067,5.899,19.967,10.383,29.7,13.45c14.3,4.533,29.8,6.733,46.5,6.6c18.833-0.1,34.833-1.767,48-5
	c12.1-2.934,23.95-7.783,35.55-14.55c8.1-4.7,14.033-10.917,17.8-18.65c1.9-3.833,3-7.233,3.3-10.2L475.7,281.95z M369.1,365.1
	c-23.934-0.1-47.783-3.25-71.55-9.449c-26.566-6.9-47.867-16.467-63.9-28.7c-13.4-10.2-21.983-21.117-25.75-32.75
	c-1.2-3.634-1.833-7.117-1.9-10.45l0.25-3.95l1.1,4.101c1.133,3.399,2.683,6.816,4.65,10.25c6.3,11,15.517,20.066,27.65,27.199
	c17.033,9.967,33.75,17.534,50.15,22.7c24.133,7.634,50.3,11.351,78.5,11.15c31.733-0.167,58.717-2.967,80.95-8.4
	c20.4-5,40.4-13.2,60-24.6c13.633-7.9,23.65-18.384,30.05-31.45c3.2-6.5,5.034-12.233,5.5-17.2l0.65,5.601
	c0.133,4.666-0.45,9.366-1.75,14.1c-4.2,15.134-14.967,27.8-32.3,38c-20.467,12-42.083,20.7-64.85,26.1
	C423.917,362.717,398.1,365.3,369.1,365.1z M164.1,26.4h58.45c-12.667,24.934-26.033,49.533-40.1,73.8
	c-14,24.066-28.617,47.966-43.85,71.7V262H85.55v-89.4c-15.466-24.1-30.15-48.133-44.05-72.1C27.333,76.033,13.917,51.333,1.25,26.4
	h61.5c7.3,16.4,15.117,32.567,23.45,48.5c8.233,15.833,17.167,31.883,26.8,48.15c9.733-16.333,18.817-32.383,27.25-48.15
	C148.65,59.3,156.6,43.133,164.1,26.4z M612.5,318.15V302h9.5v42.25h-9.5v-17.9h-16v17.9H587V302h9.5v16.15H612.5z"/>
</svg>
